<svg width="54" height="49" viewBox="0 0 54 49" fill="none" xmlns="http://www.w3.org/2000/svg">
<path fill-rule="evenodd" clip-rule="evenodd" d="M52.9071 37.4103C53.2973 37.4103 53.5298 37.8454 53.3134 38.1701L46.4833 48.4152C46.3927 48.5511 46.2403 48.6329 46.077 48.633H0.489131C0.0990469 48.6328 -0.133525 48.1978 0.0828807 47.8732L6.91296 37.6281C7.00356 37.4922 7.15684 37.4103 7.32019 37.4103H52.9071ZM9.06823 41.4552C8.68134 41.4554 8.33091 41.6843 8.17468 42.0382L7.66101 43.2013C7.37593 43.8472 7.84955 44.5734 8.55554 44.5734H15.0194C15.4063 44.5732 15.7567 44.3443 15.913 43.9904L16.4266 42.8273C16.7117 42.1814 16.2381 41.4552 15.5321 41.4552H9.06823Z" fill="white"/>
<path fill-rule="evenodd" clip-rule="evenodd" d="M52.9086 0C53.2988 0 53.5313 0.435108 53.3148 0.759766L46.4847 11.0049C46.3942 11.1407 46.2417 11.2225 46.0785 11.2227H0.49061C0.10042 11.2227 -0.132078 10.7875 0.0843599 10.4629L6.91444 0.217773C7.00497 0.081978 7.1575 0.000136878 7.32069 0H52.9086ZM9.06971 4.04492C8.68274 4.04499 8.33242 4.2739 8.17616 4.62793L7.66249 5.79102C7.37746 6.43677 7.85026 7.16283 8.55604 7.16309H15.0199C15.4069 7.16309 15.7582 6.93416 15.9144 6.58008L16.4271 5.41699C16.7122 4.77112 16.2396 4.04492 15.5336 4.04492H9.06971Z" fill="white"/>
<path fill-rule="evenodd" clip-rule="evenodd" d="M52.9086 18.7043C53.2988 18.7043 53.5313 19.1394 53.3148 19.464L46.4847 29.7092C46.3942 29.845 46.2417 29.9268 46.0785 29.9269H0.49061C0.10042 29.9269 -0.132078 29.4918 0.0843599 29.1672L6.91444 18.922C7.00497 18.7862 7.1575 18.7044 7.32069 18.7043H52.9086ZM9.06971 22.7511C8.68274 22.7512 8.33242 22.9801 8.17616 23.3342L7.66249 24.4972C7.37763 25.1429 7.85033 25.8681 8.55604 25.8683H15.0199C15.4069 25.8683 15.7581 25.6404 15.9144 25.2863L16.4271 24.1232C16.7122 23.4773 16.2396 22.7511 15.5336 22.7511H9.06971Z" fill="white"/>
</svg>
